<svg width="157" height="53" viewBox="0 0 157 53" fill="none" xmlns="http://www.w3.org/2000/svg">
<path d="M39.9663 19.5664C39.8748 19.7188 39.7731 19.8357 39.6613 19.917C39.5597 19.9882 39.4326 20.0238 39.2802 20.0238C39.1074 20.0238 38.9041 19.9374 38.6703 19.7646C38.4365 19.5918 38.1417 19.4037 37.7859 19.2004C37.4403 18.987 37.0185 18.7938 36.5204 18.621C36.0325 18.4482 35.4379 18.3618 34.7365 18.3618C34.0758 18.3618 33.4914 18.4533 32.9831 18.6363C32.4851 18.8091 32.0632 19.048 31.7176 19.3529C31.3822 19.6578 31.1281 20.0187 30.9553 20.4354C30.7825 20.842 30.6961 21.2842 30.6961 21.7619C30.6961 22.3718 30.8435 22.88 31.1382 23.2866C31.4432 23.683 31.8396 24.0236 32.3275 24.3082C32.8256 24.5928 33.3846 24.8418 34.0047 25.0553C34.6349 25.2586 35.2753 25.472 35.9258 25.6957C36.5865 25.9193 37.2269 26.1734 37.8469 26.458C38.4771 26.7325 39.0362 27.0831 39.5241 27.51C40.0222 27.937 40.4186 28.4604 40.7134 29.0805C41.0183 29.7005 41.1708 30.4629 41.1708 31.3675C41.1708 32.323 41.0082 33.2226 40.6829 34.0663C40.3576 34.8998 39.8799 35.6265 39.2497 36.2466C38.6296 36.8666 37.8622 37.3545 36.9474 37.7103C36.0427 38.0661 35.011 38.244 33.8522 38.244C32.4292 38.244 31.1382 37.9898 29.9795 37.4816C28.8207 36.9632 27.8296 36.2669 27.0063 35.3928L27.8601 33.99C27.9415 33.8782 28.038 33.7867 28.1498 33.7156C28.2718 33.6343 28.4039 33.5936 28.5463 33.5936C28.6784 33.5936 28.8258 33.6495 28.9884 33.7613C29.1612 33.863 29.3543 33.9951 29.5678 34.1578C29.7813 34.3204 30.0252 34.4983 30.2997 34.6914C30.5741 34.8845 30.8841 35.0624 31.2297 35.225C31.5855 35.3877 31.987 35.5249 32.4342 35.6367C32.8815 35.7384 33.3846 35.7892 33.9437 35.7892C34.6451 35.7892 35.2702 35.6926 35.8191 35.4995C36.368 35.3064 36.8305 35.037 37.2066 34.6914C37.5928 34.3356 37.8876 33.9138 38.0909 33.4259C38.2942 32.938 38.3958 32.3942 38.3958 31.7945C38.3958 31.1338 38.2434 30.595 37.9384 30.1783C37.6436 29.7514 37.2523 29.3956 36.7644 29.111C36.2765 28.8264 35.7174 28.5875 35.0872 28.3944C34.457 28.1911 33.8166 27.9878 33.1661 27.7845C32.5156 27.571 31.8752 27.3271 31.245 27.0526C30.6148 26.7782 30.0557 26.4224 29.5678 25.9853C29.0799 25.5483 28.6835 25.0045 28.3785 24.3539C28.0838 23.6932 27.9364 22.88 27.9364 21.9144C27.9364 21.1419 28.0838 20.3948 28.3785 19.6731C28.6835 18.9514 29.1206 18.311 29.6898 17.752C30.2692 17.1929 30.9756 16.7457 31.8091 16.4102C32.6528 16.0748 33.6184 15.9071 34.706 15.9071C35.9258 15.9071 37.0338 16.1002 38.0299 16.4865C39.0362 16.8727 39.9205 17.4318 40.6829 18.1636L39.9663 19.5664ZM79.6862 26.7325C80.54 26.7325 81.2922 26.6308 81.9428 26.4275C82.6035 26.2141 83.1523 25.9193 83.5894 25.5432C84.0367 25.1569 84.3721 24.6995 84.5957 24.171C84.8194 23.6424 84.9312 23.0579 84.9312 22.4175C84.9312 21.1165 84.5042 20.1356 83.6504 19.4749C82.7966 18.8142 81.5158 18.4838 79.8082 18.4838H76.5758V26.7325H79.6862ZM89.7797 38H87.1572C86.6185 38 86.2221 37.7916 85.968 37.3749L80.2961 29.5684C80.1233 29.3244 79.9352 29.1516 79.7319 29.05C79.5388 28.9382 79.2339 28.8823 78.8171 28.8823H76.5758V38H73.6331V16.151H79.8082C81.1906 16.151 82.3849 16.2933 83.3912 16.5779C84.3975 16.8524 85.2259 17.2539 85.8765 17.7824C86.5372 18.311 87.0251 18.9514 87.3402 19.7036C87.6553 20.4456 87.8129 21.2791 87.8129 22.2041C87.8129 22.9766 87.6909 23.6983 87.4469 24.3692C87.203 25.04 86.8472 25.6448 86.3796 26.1836C85.9222 26.7121 85.3581 27.1644 84.6872 27.5405C84.0265 27.9166 83.2743 28.2012 82.4307 28.3944C82.8067 28.6078 83.132 28.9179 83.4065 29.3244L89.7797 38ZM107.45 35.591L107.434 38H93.9712V16.151H107.434V18.56H96.9291V25.8176H105.437V28.1352H96.9291V35.591H107.45ZM126.269 35.591L126.254 38H112.791V16.151H126.254V18.56H115.748V25.8176H124.256V28.1352H115.748V35.591H126.269ZM125.476 9.76252L120.506 14.1232C120.353 14.2655 120.206 14.3519 120.063 14.3824C119.921 14.4129 119.748 14.4281 119.545 14.4281H117.593L121.115 10.2504C121.288 10.0268 121.461 9.88957 121.634 9.83875C121.817 9.78793 122.076 9.76252 122.411 9.76252H125.476Z" fill="#456658"/>
<path fill-rule="evenodd" clip-rule="evenodd" d="M65.0355 28.5444C64.2783 32.5518 60.7586 35.5827 56.5311 35.5827C52.3036 35.5827 48.7839 32.5518 48.0267 28.5444H45.3274C46.1119 34.0294 50.8291 38.2459 56.5311 38.2459C62.2331 38.2459 66.9503 34.0294 67.7348 28.5444H65.0355ZM47.8764 27.0226C47.8761 26.991 47.8759 26.9592 47.8759 26.9275C47.8759 22.1473 51.751 18.2723 56.5311 18.2723C61.3112 18.2723 65.1863 22.1473 65.1863 26.9275C65.1863 26.9592 65.1861 26.991 65.1858 27.0226H67.8491C67.8493 26.9909 67.8495 26.9592 67.8495 26.9275C67.8495 20.6765 62.7821 15.6091 56.5311 15.6091C50.2801 15.6091 45.2127 20.6765 45.2127 26.9275C45.2127 26.9592 45.2129 26.9909 45.2131 27.0226H47.8764Z" fill="#456658"/>
<path d="M54.8195 27.403C54.7826 27.1681 54.439 26.9275 54.439 26.9275L57.8631 26.4519C57.8631 26.4519 58.6872 26.9043 58.7191 27.403C58.7364 27.6729 58.5289 28.0688 58.5289 28.0688H57.7852C57.4293 28.3354 56.8425 28.83 56.8168 29.2102C56.7813 29.7369 57.8631 30.0662 57.8631 30.0662H54.0586C54.0586 30.0662 54.8394 29.6696 54.6293 29.2102C54.4629 28.8464 54.0586 27.8786 54.0586 27.8786L54.7469 27.6974C54.8002 27.6015 54.8345 27.4984 54.8195 27.403Z" fill="#ECB492"/>
<rect x="45.0228" y="27.4031" width="5.13606" height="0.760898" rx="0.380449" fill="#ECB492"/>
<rect x="60.4306" y="27.4031" width="7.60898" height="0.760898" rx="0.380449" fill="#ECB492"/>
<rect x="49.3978" y="26.2617" width="14.4571" height="0.760898" rx="0.380449" fill="#ECB492"/>
<path d="M56.3409 19.9844C52.8215 19.9844 49.9684 22.7949 49.9684 26.2618H56.3409H62.7134C62.7134 22.7949 59.8604 19.9844 56.3409 19.9844Z" fill="#ECB492"/>
<rect x="50.9196" y="27.4031" width="8.94055" height="0.760898" rx="0.380449" fill="#ECB492"/>
<rect x="52.4414" y="29.876" width="10.2721" height="0.760898" rx="0.380449" fill="#ECB492"/>
</svg>
