<svg width="100" height="30" viewBox="0 0 100 30" fill="none" xmlns="http://www.w3.org/2000/svg">
<path d="M12.9663 10.5664C12.8748 10.7188 12.7731 10.8357 12.6613 10.917C12.5597 10.9882 12.4326 11.0238 12.2802 11.0238C12.1074 11.0238 11.9041 10.9374 11.6703 10.7646C11.4365 10.5918 11.1417 10.4037 10.7859 10.2004C10.4403 9.98696 10.0185 9.79384 9.52045 9.62104C9.03254 9.44824 8.43791 9.36184 7.73654 9.36184C7.07584 9.36184 6.49137 9.45332 5.98314 9.63628C5.48507 9.80908 5.06323 10.048 4.71763 10.3529C4.3822 10.6578 4.12808 11.0187 3.95528 11.4354C3.78248 11.842 3.69608 12.2842 3.69608 12.7619C3.69608 13.3718 3.84347 13.88 4.13825 14.2866C4.44319 14.683 4.83961 15.0236 5.32751 15.3082C5.82558 15.5928 6.38464 15.8418 7.00469 16.0553C7.6349 16.2586 8.27527 16.472 8.92581 16.6957C9.58652 16.9193 10.2269 17.1734 10.8469 17.458C11.4771 17.7325 12.0362 18.0831 12.5241 18.51C13.0222 18.937 13.4186 19.4604 13.7134 20.0805C14.0183 20.7005 14.1708 21.4629 14.1708 22.3675C14.1708 23.323 14.0082 24.2226 13.6829 25.0663C13.3576 25.8998 12.8799 26.6265 12.2497 27.2466C11.6296 27.8666 10.8622 28.3545 9.94736 28.7103C9.0427 29.0661 8.01099 29.244 6.85222 29.244C5.42916 29.244 4.13825 28.9898 2.97947 28.4816C1.8207 27.9632 0.829642 27.2669 0.00630336 26.3928L0.860137 24.99C0.941454 24.8782 1.03802 24.7867 1.14983 24.7156C1.27181 24.6343 1.40395 24.5936 1.54625 24.5936C1.67839 24.5936 1.82578 24.6495 1.98842 24.7613C2.16122 24.863 2.35434 24.9951 2.5678 25.1578C2.78126 25.3204 3.02521 25.4983 3.29966 25.6914C3.57411 25.8845 3.88413 26.0624 4.22973 26.225C4.58549 26.3877 4.987 26.5249 5.43424 26.6367C5.88149 26.7384 6.38464 26.7892 6.9437 26.7892C7.64506 26.7892 8.27019 26.6926 8.81908 26.4995C9.36797 26.3064 9.83047 26.037 10.2066 25.6914C10.5928 25.3356 10.8876 24.9138 11.0909 24.4259C11.2942 23.938 11.3958 23.3942 11.3958 22.7945C11.3958 22.1338 11.2434 21.595 10.9384 21.1783C10.6436 20.7514 10.2523 20.3956 9.7644 20.111C9.27649 19.8264 8.71744 19.5875 8.08722 19.3944C7.45701 19.1911 6.81664 18.9878 6.1661 18.7845C5.51556 18.571 4.87519 18.3271 4.24498 18.0526C3.61477 17.7782 3.05571 17.4224 2.5678 16.9853C2.0799 16.5483 1.68348 16.0045 1.37854 15.3539C1.08376 14.6932 0.936372 13.88 0.936372 12.9144C0.936372 12.1419 1.08376 11.3948 1.37854 10.6731C1.68348 9.95139 2.12056 9.31101 2.68978 8.75196C3.26917 8.1929 3.97561 7.74565 4.80912 7.41022C5.65278 7.07478 6.61843 6.90707 7.70605 6.90707C8.92581 6.90707 10.0338 7.10019 11.0299 7.48645C12.0362 7.87271 12.9205 8.43177 13.6829 9.16362L12.9663 10.5664ZM52.6862 17.7325C53.54 17.7325 54.2922 17.6308 54.9428 17.4275C55.6035 17.2141 56.1523 16.9193 56.5894 16.5432C57.0367 16.1569 57.3721 15.6995 57.5957 15.171C57.8194 14.6424 57.9312 14.0579 57.9312 13.4175C57.9312 12.1165 57.5042 11.1356 56.6504 10.4749C55.7966 9.81416 54.5158 9.48381 52.8082 9.48381H49.5758V17.7325H52.6862ZM62.7797 29H60.1572C59.6185 29 59.2221 28.7916 58.968 28.3749L53.2961 20.5684C53.1233 20.3244 52.9352 20.1516 52.7319 20.05C52.5388 19.9382 52.2339 19.8823 51.8171 19.8823H49.5758V29H46.6331V7.15102H52.8082C54.1906 7.15102 55.3849 7.29332 56.3912 7.57793C57.3975 7.85238 58.2259 8.25389 58.8765 8.78245C59.5372 9.31101 60.0251 9.95139 60.3402 10.7036C60.6553 11.4456 60.8129 12.2791 60.8129 13.2041C60.8129 13.9766 60.6909 14.6983 60.4469 15.3692C60.203 16.04 59.8472 16.6448 59.3796 17.1836C58.9222 17.7121 58.3581 18.1644 57.6872 18.5405C57.0265 18.9166 56.2743 19.2012 55.4307 19.3944C55.8067 19.6078 56.132 19.9179 56.4065 20.3244L62.7797 29ZM80.4496 26.591L80.4343 29H66.9712V7.15102H80.4343V9.56005H69.9291V16.8176H78.437V19.1352H69.9291V26.591H80.4496ZM99.2689 26.591L99.2537 29H85.7906V7.15102H99.2537V9.56005H88.7485V16.8176H97.2563V19.1352H88.7485V26.591H99.2689ZM98.4761 0.762516L93.5056 5.12316C93.3531 5.26547 93.2057 5.35187 93.0634 5.38236C92.9211 5.41286 92.7483 5.4281 92.545 5.4281H90.5934L94.1154 1.25042C94.2882 1.0268 94.461 0.889574 94.6338 0.838751C94.8168 0.787928 95.076 0.762516 95.4114 0.762516H98.4761Z" fill="#456658"/>
</svg>
